<?xml version="1.0" encoding="UTF-8" standalone="no"?>
<!-- Created with Inkscape (http://www.inkscape.org/) -->

<svg
   xmlns:dc="http://purl.org/dc/elements/1.1/"
   xmlns:cc="http://creativecommons.org/ns#"
   xmlns:rdf="http://www.w3.org/1999/02/22-rdf-syntax-ns#"
   xmlns:svg="http://www.w3.org/2000/svg"
   xmlns="http://www.w3.org/2000/svg"
   xmlns:sodipodi="http://sodipodi.sourceforge.net/DTD/sodipodi-0.dtd"
   xmlns:inkscape="http://www.inkscape.org/namespaces/inkscape"
   width="1920mm"
   height="3000mm"
   viewBox="0 0 6803.1496 10629.921"
   id="svg5741"
   version="1.1"
   inkscape:version="0.91 r13725"
   style="shape-rendering:crispEdges"
   sodipodi:docname="HTMLBACKGROUD.svg">
  <defs
     id="defs5743" />
  <sodipodi:namedview
     id="base"
     pagecolor="#ffffff"
     bordercolor="#666666"
     borderopacity="1.0"
     inkscape:pageopacity="0.0"
     inkscape:pageshadow="2"
     inkscape:zoom="0.069897037"
     inkscape:cx="3401.5748"
     inkscape:cy="5314.9606"
     inkscape:document-units="px"
     inkscape:current-layer="g6563"
     showgrid="false"
     showborder="true"
     inkscape:snap-bbox="true"
     inkscape:bbox-paths="true"
     inkscape:bbox-nodes="true"
     inkscape:snap-bbox-edge-midpoints="true"
     inkscape:snap-bbox-midpoints="true"
     inkscape:object-paths="true"
     inkscape:snap-intersection-paths="true"
     inkscape:object-nodes="true"
     inkscape:snap-smooth-nodes="true"
     inkscape:snap-midpoints="true"
     inkscape:snap-object-midpoints="true"
     inkscape:snap-center="true"
     inkscape:snap-text-baseline="true"
     inkscape:snap-grids="true"
     inkscape:snap-page="true"
     inkscape:window-width="1920"
     inkscape:window-height="1015"
     inkscape:window-x="0"
     inkscape:window-y="25"
     inkscape:window-maximized="1" />
  <metadata
     id="metadata5746">
    <rdf:RDF>
      <cc:Work
         rdf:about="">
        <dc:format>image/svg+xml</dc:format>
        <dc:type
           rdf:resource="http://purl.org/dc/dcmitype/StillImage" />
        <dc:title></dc:title>
      </cc:Work>
    </rdf:RDF>
  </metadata>
  <g
     inkscape:label="Layer 1"
     inkscape:groupmode="layer"
     id="layer1"
     transform="translate(0,9577.5591)">
    <g
       transform="translate(-3782.7224,975.40163)"
       id="g4478">
      <g
         id="g6563"
         transform="matrix(3.5433066,0,0,3.5433066,3782.7231,-3876.9817)">
        <rect
           style="fill:#2980b9;fill-opacity:1;stroke:none;stroke-width:4.75;stroke-linecap:round;stroke-linejoin:round;stroke-miterlimit:4;stroke-dasharray:none;stroke-dashoffset:0;stroke-opacity:1"
           id="rect4157"
           width="1920.0002"
           height="3000.0002"
           x="-0.00019073488"
           y="-1884.1096" />
        <g
           id="g5163"
           style="opacity:0.15"
           transform="translate(-4.5217567,29.787838)">
          <g
             transform="matrix(-1.2500001,0,0,-1.2500001,1978.4373,90.462615)"
             id="g4359"
             style="opacity:0.51999996">
            <path
               d="m 325.1206,91.8789 c -0.18,0 -0.355,-0.021 -0.534,-0.027 -2.337,11.517 -12.109,20.329 -24.088,21.223 -4.18,20.016 -21.922,35.052 -43.18,35.052 -3.547,0 -6.991,-0.43 -10.296,-1.22 -9.363,23.331 -32.178,39.815 -58.857,39.815 -16.926,0 -32.292,-6.646 -43.663,-17.452 -3.581,1.562 -7.532,2.433 -11.689,2.433 -14.371,0 -26.315,-10.358 -28.793,-24.014 -21.439,-3.005 -37.94,-21.41 -37.94,-43.677 0,-24.364 19.752,-44.116 44.116,-44.116 l 214.924,0 c 8.832,0 15.991,7.16 15.991,15.991 0,8.832 -7.159,15.992 -15.991,15.992"
               style="fill:#ededed;fill-opacity:1;fill-rule:nonzero;stroke:none"
               id="path4361"
               inkscape:connector-curvature="0" />
            <path
               d="m 169.312,156.5957 c -3.944,5.276 -11.275,7.75 -17.609,5.942 -6.335,-1.808 -11.256,-7.778 -11.821,-14.341 3.216,4.44 7.897,6.986 13.115,8.671 5.217,1.686 11.109,1.449 16.315,-0.272"
               style="fill:#f5f5f5;fill-opacity:1;fill-rule:nonzero;stroke:none"
               id="path4363"
               inkscape:connector-curvature="0" />
            <path
               d="m 146.4678,155.959 c 10.776,16.527 29.422,24.461 49.092,22.919 14.625,-1.147 28.464,-6.783 40.982,-14.604 -11.627,13.727 -28.977,22.448 -48.376,22.448 -16.927,0 -32.292,-6.646 -43.663,-17.452 -3.581,1.562 -7.533,2.433 -11.689,2.433 -9.561,0 -18.043,-4.588 -23.383,-11.679 3.631,2.558 7.837,4.295 12.236,4.915 9.061,1.276 18.657,-2.199 24.801,-8.98"
               style="fill:#f5f5f5;fill-opacity:1;fill-rule:nonzero;stroke:none"
               id="path4365"
               inkscape:connector-curvature="0" />
            <path
               d="m 272.3252,135.1211 c 8.215,-4.029 14.65,-12.22 15.134,-21.357 -8.526,1.666 -18.276,-1.234 -24.793,-6.976 6.545,3.866 13.625,3.604 21.108,2.271 7.484,-1.334 14.444,-5.423 19.25,-11.313 -0.97,3.355 -2.831,7.377 -4.806,10.257 9.998,-0.411 19.003,-4.661 25.236,-12.214 -3.541,9.539 -12.385,16.496 -22.956,17.286 -4.18,20.016 -21.922,35.052 -43.179,35.052 -3.547,0 -6.992,-0.43 -10.296,-1.22 -0.081,0.199 -0.17,0.395 -0.252,0.594 -10.191,-4.87 -19.399,-11.791 -26.747,-20.373 7.96,4.512 16.547,8.261 25.473,10.274 8.926,2.013 18.613,1.748 26.828,-2.281"
               style="fill:#f5f5f5;fill-opacity:1;fill-rule:nonzero;stroke:none"
               id="path4367"
               inkscape:connector-curvature="0" />
          </g>
          <g
             style="opacity:0.51999996"
             id="g4659"
             transform="matrix(1.25,0,0,-1.2871624,1388.9702,-747.1263)">
            <path
               inkscape:connector-curvature="0"
               id="path112"
               style="fill:#ededed;fill-opacity:1;fill-rule:nonzero;stroke:none"
               d="m 280.6216,746.3257 c 34.611,0 62.951,-26.836 65.355,-60.835 15.697,-3.707 27.382,-17.797 27.382,-34.625 0,-19.654 -15.933,-35.587 -35.587,-35.587 -1.028,0 -2.044,0.053 -3.049,0.139 -8.381,-8.23 -19.864,-13.311 -32.538,-13.311 -6.861,0 -13.369,1.499 -19.231,4.17 -8.13,-6.991 -18.698,-11.226 -30.261,-11.226 -15.932,0 -29.985,8.024 -38.352,20.247 -13.922,0.231 -26.302,6.769 -34.411,16.888 -3.095,-1.087 -6.42,-1.685 -9.887,-1.685 -16.476,0 -29.833,13.357 -29.833,29.833 0,16.477 13.357,29.833 29.833,29.833 3.467,0 6.792,-0.597 9.887,-1.684 8.257,10.302 20.938,16.907 35.169,16.907 1.579,0 3.138,-0.083 4.675,-0.242 9.664,24.132 33.264,41.178 60.848,41.178" />
            <path
               inkscape:connector-curvature="0"
               id="path116"
               style="fill:#ededed;fill-opacity:1;fill-rule:nonzero;stroke:none"
               d="m 104.0103,678.4912 c 10.027,0 18.157,-8.129 18.157,-18.157 0,-10.028 -8.13,-18.157 -18.157,-18.157 -10.028,0 -18.157,8.129 -18.157,18.157 0,10.028 8.129,18.157 18.157,18.157" />
            <path
               inkscape:connector-curvature="0"
               id="path120"
               style="fill:#ededed;fill-opacity:1;fill-rule:nonzero;stroke:none"
               d="m 46.3696,667.481 c -3.947,-3.947 -3.947,-10.347 0,-14.294 3.947,-3.947 10.347,-3.947 14.294,0 3.947,3.947 3.947,10.347 0,14.294 -3.947,3.947 -10.347,3.947 -14.294,0" />
            <path
               inkscape:connector-curvature="0"
               id="path124"
               style="fill:#f5f5f5;fill-opacity:1;fill-rule:nonzero;stroke:none"
               d="m 223.6025,672.2017 c 1.208,8.164 7.818,15.252 15.877,17.028 8.06,1.776 17.037,-1.878 21.564,-8.778 -6.187,2.982 -12.862,3.004 -19.617,1.757 -6.755,-1.246 -13.109,-5.013 -17.824,-10.007" />
            <path
               inkscape:connector-curvature="0"
               id="path128"
               style="fill:#d9d9d9;fill-opacity:1;fill-rule:nonzero;stroke:none"
               d="m 296.9224,631.1357 c -3.54,-7.455 -11.931,-12.305 -20.158,-11.65 -8.226,0.655 -15.745,6.771 -18.061,14.692 5.047,-4.659 11.426,-6.628 18.25,-7.408 6.824,-0.78 14.001,0.967 19.969,4.366" />
            <path
               inkscape:connector-curvature="0"
               id="path132"
               style="fill:#d9d9d9;fill-opacity:1;fill-rule:nonzero;stroke:none"
               d="m 229.8516,634.2627 c -2.466,-5.195 -8.314,-8.575 -14.047,-8.119 -5.733,0.457 -10.973,4.719 -12.586,10.239 3.517,-3.247 7.962,-4.62 12.717,-5.163 4.756,-0.544 9.757,0.674 13.916,3.043" />
            <path
               inkscape:connector-curvature="0"
               id="path136"
               style="fill:#f5f5f5;fill-opacity:1;fill-rule:nonzero;stroke:none"
               d="m 248.7017,738.0244 c 9.446,5.282 20.328,8.301 31.92,8.301 34.611,0 62.951,-26.836 65.355,-60.835 9.347,-2.207 17.269,-8.096 22.151,-16.053 -7.674,7.863 -19.546,11.521 -30.291,9.068 0.461,23.647 -14.319,46.369 -35.642,56.601 -16.517,7.927 -36.011,8.522 -53.493,2.918" />
            <path
               inkscape:connector-curvature="0"
               id="path140"
               style="fill:#f5f5f5;fill-opacity:1;fill-rule:nonzero;stroke:none"
               d="m 145.397,677.1436 c 5.372,7.862 14.405,13.023 24.646,13.023 3.466,0 6.791,-0.597 9.887,-1.684 8.257,10.303 20.938,16.907 35.168,16.907 1.108,0 2.201,-0.055 3.288,-0.134 10.023,-4.062 18.741,-11.413 23.937,-20.914 -6.472,8.936 -18.38,10.994 -29.343,9.761 -10.965,-1.232 -21.022,-6.693 -30.001,-13.105 -2.122,3.953 -6.533,4.785 -11,5.183 -9.6,0.855 -19.398,-2.652 -26.582,-9.037" />
            <path
               inkscape:connector-curvature="0"
               id="path144"
               style="fill:#d9d9d9;fill-opacity:1;fill-rule:nonzero;stroke:none"
               d="m 182.082,629.7134 c 11.926,-4.039 24.637,-3.6 36.704,0.244 4.405,-11.421 15.609,-19.908 27.796,-21.056 12.187,-1.148 23.875,4.219 30.336,14.615 8.008,-9.561 21.103,-14.588 33.453,-12.841 12.348,1.748 24.83,9.16 29.871,20.567 -1.128,-5.476 -2.953,-10.806 -5.402,-15.833 -0.039,0.004 -0.079,0.005 -0.118,0.008 -8.381,-8.229 -19.863,-13.311 -32.537,-13.311 -6.862,0 -13.37,1.5 -19.231,4.17 -8.13,-6.991 -18.698,-11.226 -30.262,-11.226 -15.931,0 -29.985,8.024 -38.352,20.247 -12.747,0.211 -24.191,5.722 -32.258,14.416" />
          </g>
          <g
             style="opacity:0.51999996"
             id="g4676"
             transform="matrix(1.2500001,0,0,-1.2500001,30.55225,-1326.992)">
            <path
               inkscape:connector-curvature="0"
               id="path24"
               style="fill:#ededed;fill-opacity:1;fill-rule:nonzero;stroke:none"
               d="m 334.5449,231.3086 c 14.522,0 26.294,11.772 26.294,26.295 0,14.522 -11.772,26.295 -26.294,26.295 -3.581,0 -6.993,-0.719 -10.104,-2.015 -4.761,16.526 -19.985,28.619 -38.043,28.619 -2.453,0 -4.849,-0.234 -7.178,-0.661 0.002,0.22 0.009,0.44 0.009,0.661 0,43.738 -35.456,79.194 -79.194,79.194 -33.945,0 -62.897,-21.359 -74.162,-51.368 -5.078,1.557 -10.47,2.4 -16.058,2.4 -30.216,0 -54.71,-24.494 -54.71,-54.71 0,-30.216 24.494,-54.71 54.71,-54.71 l 224.73,0 z" />
            <path
               inkscape:connector-curvature="0"
               id="path28"
               style="fill:#f5f5f5;fill-opacity:1;fill-rule:nonzero;stroke:none"
               d="m 134.5654,315.7969 c 0.354,22.619 14.143,43.888 33.576,55.468 19.433,11.579 44.184,13.179 65.435,5.424 11.209,-4.091 21.396,-10.662 30.007,-18.924 -14.436,19.38 -37.526,31.931 -63.549,31.931 -33.944,0 -62.896,-21.358 -74.161,-51.368 -5.079,1.558 -10.47,2.401 -16.059,2.401 -21.038,0 -39.291,-11.881 -48.445,-29.293 5.447,7.468 12.945,13.439 21.615,16.672 17.569,6.548 38.863,1.465 51.581,-12.311" />
            <path
               inkscape:connector-curvature="0"
               id="path32"
               style="fill:#f5f5f5;fill-opacity:1;fill-rule:nonzero;stroke:none"
               d="m 360.8394,257.6035 c 0,14.522 -11.772,26.295 -26.294,26.295 -3.581,0 -6.993,-0.719 -10.104,-2.015 -4.761,16.526 -19.985,28.619 -38.043,28.619 -1.603,0 -3.178,-0.109 -4.729,-0.297 -9.11,-3.341 -17.162,-9.634 -22.273,-17.895 10.333,7.8 24.429,9.611 36.673,5.408 12.246,-4.204 22.11,-14.761 25.474,-27.262 6.223,4.8 14.801,4.746 21.951,1.48 7.15,-3.266 12.336,-10.302 13.773,-18.029 0.584,-3.139 0.558,-6.362 0.016,-9.503 2.257,3.88 3.556,8.387 3.556,13.199" />
            <path
               inkscape:connector-curvature="0"
               id="path36"
               style="fill:#f5f5f5;fill-opacity:1;fill-rule:nonzero;stroke:none"
               d="m 170.0776,315.7041 c -8.363,10.422 -23.396,14.927 -36.112,10.821 -12.717,-4.106 -22.277,-16.552 -22.965,-29.897 6.211,9.226 15.523,14.713 25.983,18.492 10.46,3.78 22.42,3.709 33.094,0.584" />
            <path
               inkscape:connector-curvature="0"
               id="path40"
               style="fill:#f5f5f5;fill-opacity:1;fill-rule:nonzero;stroke:none"
               d="m 272.8491,277.4531 c 1.018,9.288 -4.187,18.948 -12.504,23.205 -8.318,4.257 -19.198,2.83 -26.136,-3.428 7.632,1.492 14.949,-0.4 21.99,-3.703 7.04,-3.303 12.918,-9.252 16.65,-16.074" />
          </g>
          <g
             style="opacity:0.51999996"
             id="g4670"
             transform="matrix(1.2500001,0,0,-1.2500001,398.30465,-776.0902)">
            <path
               inkscape:connector-curvature="0"
               id="path44"
               style="fill:#ededed;fill-opacity:1;fill-rule:nonzero;stroke:none"
               d="m 171.8735,435.2236 c 11.748,-7.8 25.842,-12.348 41,-12.348 13.986,0 27.067,3.871 38.235,10.597 8.458,-6.632 19.107,-10.597 30.689,-10.597 8.522,0 16.542,2.144 23.556,5.918 5.637,-3.737 12.395,-5.918 19.664,-5.918 19.685,0 35.643,15.957 35.643,35.642 0,19.105 -15.033,34.697 -33.914,35.6 -7.898,16.523 -24.638,27.998 -44.096,28.327 -10.359,28.508 -37.689,48.872 -69.777,48.872 -31.331,0 -58.126,-19.414 -69.016,-46.867 -1.712,0.173 -3.448,0.262 -5.205,0.262 -23.437,0 -43.163,-15.84 -49.088,-37.395 -0.606,0.034 -1.215,0.055 -1.83,0.055 -17.81,0 -32.248,-14.438 -32.248,-32.248 0,-17.81 14.438,-32.248 32.248,-32.248 8.606,0 16.419,3.378 22.202,8.872 8.175,-5.595 18.062,-8.872 28.716,-8.872 12.699,0 24.303,4.66 33.221,12.348" />
            <path
               inkscape:connector-curvature="0"
               id="path48"
               style="fill:#f5f5f5;fill-opacity:1;fill-rule:nonzero;stroke:none"
               d="m 176.583,506.5146 c -6.389,7.961 -17.873,11.403 -27.587,8.266 -9.715,-3.137 -17.017,-12.644 -17.543,-22.839 4.744,7.048 11.858,11.24 19.849,14.127 7.99,2.887 17.127,2.833 25.281,0.446" />
            <path
               inkscape:connector-curvature="0"
               id="path52"
               style="fill:#f5f5f5;fill-opacity:1;fill-rule:nonzero;stroke:none"
               d="m 243.1777,564.8579 c -9.254,4.145 -19.508,6.459 -30.304,6.459 -31.331,0 -58.127,-19.414 -69.016,-46.868 -1.712,0.174 -3.448,0.263 -5.205,0.263 -23.437,0 -43.163,-15.84 -49.088,-37.395 -0.606,0.034 -1.216,0.055 -1.83,0.055 -12.15,0 -22.726,-6.722 -28.224,-16.648 2.649,2.67 5.732,4.867 9.206,6.339 8.166,3.462 18.49,2.287 24.745,-4.002 2.249,12.739 9.437,23.527 19.961,31.049 10.524,7.523 24.04,10.729 36.821,8.734 6.297,21.802 23.602,40.426 44.598,49.038 15.207,6.239 32.458,7.158 48.336,2.976" />
            <path
               inkscape:connector-curvature="0"
               id="path56"
               style="fill:#f5f5f5;fill-opacity:1;fill-rule:nonzero;stroke:none"
               d="m 356.7534,474.7441 c -5.658,11.042 -16.902,18.747 -30.007,19.373 -7.858,16.44 -24.47,27.878 -43.801,28.317 -12.715,-3.308 -24.509,-10.23 -33.29,-20.017 9.681,7.432 22.269,9.558 34.315,7.594 12.046,-1.963 23.163,-9.084 29.983,-19.206 10.312,1.712 21.59,-1.28 30.724,-6.365 4.533,-2.523 8.62,-5.827 12.076,-9.696" />
          </g>
          <g
             style="opacity:0.51999996"
             id="g4696"
             transform="matrix(1.2500001,0,0,-1.2500001,882.34239,-611.8371)">
            <path
               inkscape:connector-curvature="0"
               id="path60"
               style="fill:#ededed;fill-opacity:1;fill-rule:nonzero;stroke:none"
               d="m 705.8784,493.0542 c -1.226,0 -2.433,-0.083 -3.62,-0.228 -6.714,13.514 -20.65,22.805 -36.762,22.805 -3.37,0 -6.641,-0.415 -9.776,-1.181 -0.901,31.559 -26.765,56.867 -58.541,56.867 -32.066,0 -58.109,-25.77 -58.558,-57.728 -4.025,1.319 -8.32,2.042 -12.787,2.042 -22.662,0 -41.033,-18.371 -41.033,-41.034 0,-0.747 0.022,-1.489 0.061,-2.226 -0.02,0 -0.041,0.002 -0.061,0.002 -10.717,0 -19.405,-8.688 -19.405,-19.405 0,-10.717 8.688,-19.404 19.405,-19.404 l 221.077,0 c 16.428,0 29.745,13.317 29.745,29.745 0,16.428 -13.317,29.745 -29.745,29.745" />
            <path
               inkscape:connector-curvature="0"
               id="path64"
               style="fill:#f5f5f5;fill-opacity:1;fill-rule:nonzero;stroke:none"
               d="m 563.6919,501.6553 c -5.714,4.665 -14.349,5.368 -20.742,1.689 -6.393,-3.68 -10.123,-11.499 -8.96,-18.783 2.292,5.696 6.689,9.729 11.902,12.973 5.212,3.244 11.678,4.581 17.8,4.121" />
            <path
               inkscape:connector-curvature="0"
               id="path68"
               style="fill:#f5f5f5;fill-opacity:1;fill-rule:nonzero;stroke:none"
               d="m 491.6157,497.2393 c 4.71,4.536 10.517,7.933 16.837,9.625 12.66,3.391 26.956,-0.168 36.549,-9.099 -1.4,19.515 6.052,39.659 19.999,53.38 13.946,13.722 35.427,19.932 54.071,14.002 6.349,-2.019 12.124,-5.272 17.557,-9.129 -10.409,9.497 -24.248,15.299 -39.45,15.299 -32.065,0 -58.108,-25.77 -58.557,-57.728 -4.026,1.319 -8.32,2.042 -12.787,2.042 -14.292,0 -26.871,-7.31 -34.219,-18.392" />
            <path
               inkscape:connector-curvature="0"
               id="path72"
               style="fill:#f5f5f5;fill-opacity:1;fill-rule:nonzero;stroke:none"
               d="m 735.6235,463.3091 c 0,16.428 -13.317,29.745 -29.745,29.745 -1.226,0 -2.433,-0.083 -3.62,-0.227 -6.714,13.513 -20.65,22.804 -36.762,22.804 -3.234,0 -6.377,-0.385 -9.395,-1.093 -10.441,-4.49 -19.509,-12.229 -25.272,-22.037 8.279,10.704 22.097,16.278 35.523,14.577 13.424,-1.702 25.648,-10.904 30.995,-23.335 8.088,2.689 17.244,0.21 23.711,-5.343 6.465,-5.553 10.08,-14.059 10.376,-22.577 0.105,-3.049 -0.199,-6.091 -0.84,-9.067 3.175,4.732 5.029,10.426 5.029,16.553" />
          </g>
          <g
             style="opacity:0.51999996"
             id="g4683"
             transform="matrix(1.2500001,0,0,-1.2500001,-49.393924,-882.2006)">
            <path
               inkscape:connector-curvature="0"
               id="path76"
               style="fill:#ededed;fill-opacity:1;fill-rule:nonzero;stroke:none"
               d="m 325.1206,91.8789 c -0.18,0 -0.355,-0.021 -0.534,-0.027 -2.337,11.517 -12.109,20.329 -24.088,21.223 -4.18,20.016 -21.922,35.052 -43.18,35.052 -3.547,0 -6.991,-0.43 -10.296,-1.22 -9.363,23.331 -32.178,39.815 -58.857,39.815 -16.926,0 -32.292,-6.646 -43.663,-17.452 -3.581,1.562 -7.532,2.433 -11.689,2.433 -14.371,0 -26.315,-10.358 -28.793,-24.014 -21.439,-3.005 -37.94,-21.41 -37.94,-43.677 0,-24.364 19.752,-44.116 44.116,-44.116 l 214.924,0 c 8.832,0 15.991,7.16 15.991,15.991 0,8.832 -7.159,15.992 -15.991,15.992" />
            <path
               inkscape:connector-curvature="0"
               id="path80"
               style="fill:#f5f5f5;fill-opacity:1;fill-rule:nonzero;stroke:none"
               d="m 169.312,156.5957 c -3.944,5.276 -11.275,7.75 -17.609,5.942 -6.335,-1.808 -11.256,-7.778 -11.821,-14.341 3.216,4.44 7.897,6.986 13.115,8.671 5.217,1.686 11.109,1.449 16.315,-0.272" />
            <path
               inkscape:connector-curvature="0"
               id="path84"
               style="fill:#f5f5f5;fill-opacity:1;fill-rule:nonzero;stroke:none"
               d="m 146.4678,155.959 c 10.776,16.527 29.422,24.461 49.092,22.919 14.625,-1.147 28.464,-6.783 40.982,-14.604 -11.627,13.727 -28.977,22.448 -48.376,22.448 -16.927,0 -32.292,-6.646 -43.663,-17.452 -3.581,1.562 -7.533,2.433 -11.689,2.433 -9.561,0 -18.043,-4.588 -23.383,-11.679 3.631,2.558 7.837,4.295 12.236,4.915 9.061,1.276 18.657,-2.199 24.801,-8.98" />
            <path
               inkscape:connector-curvature="0"
               id="path88"
               style="fill:#f5f5f5;fill-opacity:1;fill-rule:nonzero;stroke:none"
               d="m 272.3252,135.1211 c 8.215,-4.029 14.65,-12.22 15.134,-21.357 -8.526,1.666 -18.276,-1.234 -24.793,-6.976 6.545,3.866 13.625,3.604 21.108,2.271 7.484,-1.334 14.444,-5.423 19.25,-11.313 -0.97,3.355 -2.831,7.377 -4.806,10.257 9.998,-0.411 19.003,-4.661 25.236,-12.214 -3.541,9.539 -12.385,16.496 -22.956,17.286 -4.18,20.016 -21.922,35.052 -43.179,35.052 -3.547,0 -6.992,-0.43 -10.296,-1.22 -0.081,0.199 -0.17,0.395 -0.252,0.594 -10.191,-4.87 -19.399,-11.791 -26.747,-20.373 7.96,4.512 16.547,8.261 25.473,10.274 8.926,2.013 18.613,1.748 26.828,-2.281" />
          </g>
          <g
             style="opacity:0.51999996"
             id="g4702"
             transform="matrix(1.2500001,0,0,-1.2500001,292.2153,-694.5106)">
            <path
               inkscape:connector-curvature="0"
               id="path148"
               style="fill:#ededed;fill-opacity:1;fill-rule:nonzero;stroke:none"
               d="m 444.4302,300.6787 c 0,-16.281 13.198,-29.479 29.479,-29.479 2.714,0 5.331,0.397 7.827,1.083 1.146,-19.978 17.705,-35.828 37.97,-35.828 9.031,0 17.322,3.154 23.845,8.411 6.712,-10.795 18.675,-17.987 32.322,-17.987 11.598,0 21.977,5.197 28.954,13.383 5.991,-2.76 12.653,-4.311 19.68,-4.311 15.532,0 29.304,7.521 37.884,19.116 2.903,-0.956 5.997,-1.492 9.22,-1.492 16.281,0 29.479,13.199 29.479,29.48 0,16.28 -13.198,29.479 -29.479,29.479 -3.223,0 -6.317,-0.536 -9.22,-1.491 -8.58,11.594 -22.352,19.115 -37.884,19.115 -0.72,0 -1.434,-0.022 -2.147,-0.054 -5.201,14.812 -19.302,25.435 -35.892,25.435 -5.709,0 -11.119,-1.265 -15.978,-3.518 -7.878,15.002 -23.599,25.24 -41.72,25.24 -26.014,0 -47.103,-21.089 -47.103,-47.103 0,-0.36 0.019,-0.715 0.027,-1.073 -2.484,0.679 -5.086,1.073 -7.785,1.073 -16.281,0 -29.479,-13.199 -29.479,-29.479" />
            <path
               inkscape:connector-curvature="0"
               id="path152"
               style="fill:#ededed;fill-opacity:1;fill-rule:nonzero;stroke:none"
               d="m 737.7974,301.377 c -10.379,0 -18.793,-8.414 -18.793,-18.793 0,-10.379 8.414,-18.793 18.793,-18.793 10.379,0 18.793,8.414 18.793,18.793 0,10.379 -8.414,18.793 -18.793,18.793" />
            <path
               inkscape:connector-curvature="0"
               id="path156"
               style="fill:#f5f5f5;fill-opacity:1;fill-rule:nonzero;stroke:none"
               d="m 508.9644,316.5117 c -6.616,5.401 -16.614,6.216 -24.018,1.955 -7.403,-4.261 -11.722,-13.314 -10.376,-21.749 2.655,6.595 7.747,11.266 13.783,15.022 6.035,3.755 13.522,5.304 20.611,4.772" />
            <path
               inkscape:connector-curvature="0"
               id="path160"
               style="fill:#d9d9d9;fill-opacity:1;fill-rule:nonzero;stroke:none"
               d="m 526.0122,271.5234 c 3.664,-7.716 12.35,-12.736 20.864,-12.059 8.515,0.678 16.297,7.009 18.694,15.207 -5.224,-4.822 -11.826,-6.86 -18.889,-7.668 -7.064,-0.807 -14.491,1.001 -20.669,4.52" />
            <path
               inkscape:connector-curvature="0"
               id="path164"
               style="fill:#d9d9d9;fill-opacity:1;fill-rule:nonzero;stroke:none"
               d="m 590.6499,257.21 c 2.554,-5.377 8.606,-8.875 14.54,-8.402 5.934,0.471 11.356,4.882 13.026,10.596 -3.639,-3.36 -8.24,-4.781 -13.163,-5.343 -4.922,-0.563 -10.098,0.697 -14.403,3.149" />
            <path
               inkscape:connector-curvature="0"
               id="path168"
               style="fill:#f5f5f5;fill-opacity:1;fill-rule:nonzero;stroke:none"
               d="m 586.4683,355.5391 c -5.709,0 -11.119,-1.266 -15.979,-3.519 -7.877,15.002 -23.598,25.241 -41.719,25.241 -26.014,0 -47.103,-21.089 -47.103,-47.104 0,-0.359 0.019,-0.715 0.027,-1.072 -2.484,0.679 -5.086,1.072 -7.786,1.072 -10.67,0 -20.016,-5.67 -25.191,-14.161 3.577,2.121 7.51,3.642 11.602,4.397 9.827,1.817 20.381,-0.747 28.281,-6.869 -0.828,14.057 3.584,29.033 12.464,39.958 8.881,10.927 23.233,17.677 37.197,15.875 13.965,-1.801 26.672,-12.928 28.783,-26.849 7.869,6.55 18.057,9.732 28.277,9.107 4.511,-0.275 8.964,-1.339 13.134,-3.08 -6.207,4.408 -13.792,7.004 -21.987,7.004" />
            <path
               inkscape:connector-curvature="0"
               id="path172"
               style="fill:#d9d9d9;fill-opacity:1;fill-rule:nonzero;stroke:none"
               d="m 660.23,252.3662 c -0.005,0.028 -0.007,0.058 -0.012,0.087 -7.451,-7.389 -17.915,-11.644 -28.407,-11.552 -10.493,0.092 -21.002,4.93 -28.322,12.447 -7.786,-9.142 -20.826,-13.459 -32.53,-10.768 -11.704,2.69 -22.488,11.64 -25.5,23.265 -7.563,-10.825 -21.086,-17.183 -34.248,-16.103 -11.563,0.949 -22.462,7.612 -28.802,17.296 3.467,-17.438 18.842,-30.583 37.298,-30.583 9.03,0 17.321,3.153 23.844,8.41 6.712,-10.795 18.675,-17.986 32.323,-17.986 11.597,0 21.976,5.197 28.954,13.383 5.99,-2.76 12.652,-4.311 19.679,-4.311 14.289,0 27.085,6.368 35.723,16.415" />
          </g>
          <g
             style="opacity:0.51999996"
             transform="matrix(1.2500001,0,0,-1.2500001,873.62099,-1037.7322)"
             id="g4289">
            <path
               d="m 171.8735,435.2236 c 11.748,-7.8 25.842,-12.348 41,-12.348 13.986,0 27.067,3.871 38.235,10.597 8.458,-6.632 19.107,-10.597 30.689,-10.597 8.522,0 16.542,2.144 23.556,5.918 5.637,-3.737 12.395,-5.918 19.664,-5.918 19.685,0 35.643,15.957 35.643,35.642 0,19.105 -15.033,34.697 -33.914,35.6 -7.898,16.523 -24.638,27.998 -44.096,28.327 -10.359,28.508 -37.689,48.872 -69.777,48.872 -31.331,0 -58.126,-19.414 -69.016,-46.867 -1.712,0.173 -3.448,0.262 -5.205,0.262 -23.437,0 -43.163,-15.84 -49.088,-37.395 -0.606,0.034 -1.215,0.055 -1.83,0.055 -17.81,0 -32.248,-14.438 -32.248,-32.248 0,-17.81 14.438,-32.248 32.248,-32.248 8.606,0 16.419,3.378 22.202,8.872 8.175,-5.595 18.062,-8.872 28.716,-8.872 12.699,0 24.303,4.66 33.221,12.348"
               style="fill:#ededed;fill-opacity:1;fill-rule:nonzero;stroke:none"
               id="path4291"
               inkscape:connector-curvature="0" />
            <path
               d="m 176.583,506.5146 c -6.389,7.961 -17.873,11.403 -27.587,8.266 -9.715,-3.137 -17.017,-12.644 -17.543,-22.839 4.744,7.048 11.858,11.24 19.849,14.127 7.99,2.887 17.127,2.833 25.281,0.446"
               style="fill:#f5f5f5;fill-opacity:1;fill-rule:nonzero;stroke:none"
               id="path4293"
               inkscape:connector-curvature="0" />
            <path
               d="m 243.1777,564.8579 c -9.254,4.145 -19.508,6.459 -30.304,6.459 -31.331,0 -58.127,-19.414 -69.016,-46.868 -1.712,0.174 -3.448,0.263 -5.205,0.263 -23.437,0 -43.163,-15.84 -49.088,-37.395 -0.606,0.034 -1.216,0.055 -1.83,0.055 -12.15,0 -22.726,-6.722 -28.224,-16.648 2.649,2.67 5.732,4.867 9.206,6.339 8.166,3.462 18.49,2.287 24.745,-4.002 2.249,12.739 9.437,23.527 19.961,31.049 10.524,7.523 24.04,10.729 36.821,8.734 6.297,21.802 23.602,40.426 44.598,49.038 15.207,6.239 32.458,7.158 48.336,2.976"
               style="fill:#f5f5f5;fill-opacity:1;fill-rule:nonzero;stroke:none"
               id="path4295"
               inkscape:connector-curvature="0" />
            <path
               d="m 356.7534,474.7441 c -5.658,11.042 -16.902,18.747 -30.007,19.373 -7.858,16.44 -24.47,27.878 -43.801,28.317 -12.715,-3.308 -24.509,-10.23 -33.29,-20.017 9.681,7.432 22.269,9.558 34.315,7.594 12.046,-1.963 23.163,-9.084 29.983,-19.206 10.312,1.712 21.59,-1.28 30.724,-6.365 4.533,-2.523 8.62,-5.827 12.076,-9.696"
               style="fill:#f5f5f5;fill-opacity:1;fill-rule:nonzero;stroke:none"
               id="path4297"
               inkscape:connector-curvature="0" />
          </g>
          <g
             transform="matrix(-1.25,0,0,-1.2871624,540.07322,225.53692)"
             id="g4307"
             style="opacity:0.51999996">
            <path
               d="m 280.6216,746.3257 c 34.611,0 62.951,-26.836 65.355,-60.835 15.697,-3.707 27.382,-17.797 27.382,-34.625 0,-19.654 -15.933,-35.587 -35.587,-35.587 -1.028,0 -2.044,0.053 -3.049,0.139 -8.381,-8.23 -19.864,-13.311 -32.538,-13.311 -6.861,0 -13.369,1.499 -19.231,4.17 -8.13,-6.991 -18.698,-11.226 -30.261,-11.226 -15.932,0 -29.985,8.024 -38.352,20.247 -13.922,0.231 -26.302,6.769 -34.411,16.888 -3.095,-1.087 -6.42,-1.685 -9.887,-1.685 -16.476,0 -29.833,13.357 -29.833,29.833 0,16.477 13.357,29.833 29.833,29.833 3.467,0 6.792,-0.597 9.887,-1.684 8.257,10.302 20.938,16.907 35.169,16.907 1.579,0 3.138,-0.083 4.675,-0.242 9.664,24.132 33.264,41.178 60.848,41.178"
               style="fill:#ededed;fill-opacity:1;fill-rule:nonzero;stroke:none"
               id="path4309"
               inkscape:connector-curvature="0" />
            <path
               d="m 104.0103,678.4912 c 10.027,0 18.157,-8.129 18.157,-18.157 0,-10.028 -8.13,-18.157 -18.157,-18.157 -10.028,0 -18.157,8.129 -18.157,18.157 0,10.028 8.129,18.157 18.157,18.157"
               style="fill:#ededed;fill-opacity:1;fill-rule:nonzero;stroke:none"
               id="path4311"
               inkscape:connector-curvature="0" />
            <path
               d="m 46.3696,667.481 c -3.947,-3.947 -3.947,-10.347 0,-14.294 3.947,-3.947 10.347,-3.947 14.294,0 3.947,3.947 3.947,10.347 0,14.294 -3.947,3.947 -10.347,3.947 -14.294,0"
               style="fill:#ededed;fill-opacity:1;fill-rule:nonzero;stroke:none"
               id="path4313"
               inkscape:connector-curvature="0" />
            <path
               d="m 223.6025,672.2017 c 1.208,8.164 7.818,15.252 15.877,17.028 8.06,1.776 17.037,-1.878 21.564,-8.778 -6.187,2.982 -12.862,3.004 -19.617,1.757 -6.755,-1.246 -13.109,-5.013 -17.824,-10.007"
               style="fill:#f5f5f5;fill-opacity:1;fill-rule:nonzero;stroke:none"
               id="path4315"
               inkscape:connector-curvature="0" />
            <path
               d="m 296.9224,631.1357 c -3.54,-7.455 -11.931,-12.305 -20.158,-11.65 -8.226,0.655 -15.745,6.771 -18.061,14.692 5.047,-4.659 11.426,-6.628 18.25,-7.408 6.824,-0.78 14.001,0.967 19.969,4.366"
               style="fill:#d9d9d9;fill-opacity:1;fill-rule:nonzero;stroke:none"
               id="path4317"
               inkscape:connector-curvature="0" />
            <path
               d="m 229.8516,634.2627 c -2.466,-5.195 -8.314,-8.575 -14.047,-8.119 -5.733,0.457 -10.973,4.719 -12.586,10.239 3.517,-3.247 7.962,-4.62 12.717,-5.163 4.756,-0.544 9.757,0.674 13.916,3.043"
               style="fill:#d9d9d9;fill-opacity:1;fill-rule:nonzero;stroke:none"
               id="path4319"
               inkscape:connector-curvature="0" />
            <path
               d="m 248.7017,738.0244 c 9.446,5.282 20.328,8.301 31.92,8.301 34.611,0 62.951,-26.836 65.355,-60.835 9.347,-2.207 17.269,-8.096 22.151,-16.053 -7.674,7.863 -19.546,11.521 -30.291,9.068 0.461,23.647 -14.319,46.369 -35.642,56.601 -16.517,7.927 -36.011,8.522 -53.493,2.918"
               style="fill:#f5f5f5;fill-opacity:1;fill-rule:nonzero;stroke:none"
               id="path4321"
               inkscape:connector-curvature="0" />
            <path
               d="m 145.397,677.1436 c 5.372,7.862 14.405,13.023 24.646,13.023 3.466,0 6.791,-0.597 9.887,-1.684 8.257,10.303 20.938,16.907 35.168,16.907 1.108,0 2.201,-0.055 3.288,-0.134 10.023,-4.062 18.741,-11.413 23.937,-20.914 -6.472,8.936 -18.38,10.994 -29.343,9.761 -10.965,-1.232 -21.022,-6.693 -30.001,-13.105 -2.122,3.953 -6.533,4.785 -11,5.183 -9.6,0.855 -19.398,-2.652 -26.582,-9.037"
               style="fill:#f5f5f5;fill-opacity:1;fill-rule:nonzero;stroke:none"
               id="path4323"
               inkscape:connector-curvature="0" />
            <path
               d="m 182.082,629.7134 c 11.926,-4.039 24.637,-3.6 36.704,0.244 4.405,-11.421 15.609,-19.908 27.796,-21.056 12.187,-1.148 23.875,4.219 30.336,14.615 8.008,-9.561 21.103,-14.588 33.453,-12.841 12.348,1.748 24.83,9.16 29.871,20.567 -1.128,-5.476 -2.953,-10.806 -5.402,-15.833 -0.039,0.004 -0.079,0.005 -0.118,0.008 -8.381,-8.229 -19.863,-13.311 -32.537,-13.311 -6.862,0 -13.37,1.5 -19.231,4.17 -8.13,-6.991 -18.698,-11.226 -30.262,-11.226 -15.931,0 -29.985,8.024 -38.352,20.247 -12.747,0.211 -24.191,5.722 -32.258,14.416"
               style="fill:#d9d9d9;fill-opacity:1;fill-rule:nonzero;stroke:none"
               id="path4325"
               inkscape:connector-curvature="0" />
          </g>
          <g
             transform="matrix(-1.2500001,0,0,-1.2500001,1898.4911,-354.32878)"
             id="g4327"
             style="opacity:0.51999996">
            <path
               d="m 334.5449,231.3086 c 14.522,0 26.294,11.772 26.294,26.295 0,14.522 -11.772,26.295 -26.294,26.295 -3.581,0 -6.993,-0.719 -10.104,-2.015 -4.761,16.526 -19.985,28.619 -38.043,28.619 -2.453,0 -4.849,-0.234 -7.178,-0.661 0.002,0.22 0.009,0.44 0.009,0.661 0,43.738 -35.456,79.194 -79.194,79.194 -33.945,0 -62.897,-21.359 -74.162,-51.368 -5.078,1.557 -10.47,2.4 -16.058,2.4 -30.216,0 -54.71,-24.494 -54.71,-54.71 0,-30.216 24.494,-54.71 54.71,-54.71 l 224.73,0 z"
               style="fill:#ededed;fill-opacity:1;fill-rule:nonzero;stroke:none"
               id="path4329"
               inkscape:connector-curvature="0" />
            <path
               d="m 134.5654,315.7969 c 0.354,22.619 14.143,43.888 33.576,55.468 19.433,11.579 44.184,13.179 65.435,5.424 11.209,-4.091 21.396,-10.662 30.007,-18.924 -14.436,19.38 -37.526,31.931 -63.549,31.931 -33.944,0 -62.896,-21.358 -74.161,-51.368 -5.079,1.558 -10.47,2.401 -16.059,2.401 -21.038,0 -39.291,-11.881 -48.445,-29.293 5.447,7.468 12.945,13.439 21.615,16.672 17.569,6.548 38.863,1.465 51.581,-12.311"
               style="fill:#f5f5f5;fill-opacity:1;fill-rule:nonzero;stroke:none"
               id="path4331"
               inkscape:connector-curvature="0" />
            <path
               d="m 360.8394,257.6035 c 0,14.522 -11.772,26.295 -26.294,26.295 -3.581,0 -6.993,-0.719 -10.104,-2.015 -4.761,16.526 -19.985,28.619 -38.043,28.619 -1.603,0 -3.178,-0.109 -4.729,-0.297 -9.11,-3.341 -17.162,-9.634 -22.273,-17.895 10.333,7.8 24.429,9.611 36.673,5.408 12.246,-4.204 22.11,-14.761 25.474,-27.262 6.223,4.8 14.801,4.746 21.951,1.48 7.15,-3.266 12.336,-10.302 13.773,-18.029 0.584,-3.139 0.558,-6.362 0.016,-9.503 2.257,3.88 3.556,8.387 3.556,13.199"
               style="fill:#f5f5f5;fill-opacity:1;fill-rule:nonzero;stroke:none"
               id="path4333"
               inkscape:connector-curvature="0" />
            <path
               d="m 170.0776,315.7041 c -8.363,10.422 -23.396,14.927 -36.112,10.821 -12.717,-4.106 -22.277,-16.552 -22.965,-29.897 6.211,9.226 15.523,14.713 25.983,18.492 10.46,3.78 22.42,3.709 33.094,0.584"
               style="fill:#f5f5f5;fill-opacity:1;fill-rule:nonzero;stroke:none"
               id="path4335"
               inkscape:connector-curvature="0" />
            <path
               d="m 272.8491,277.4531 c 1.018,9.288 -4.187,18.948 -12.504,23.205 -8.318,4.257 -19.198,2.83 -26.136,-3.428 7.632,1.492 14.949,-0.4 21.99,-3.703 7.04,-3.303 12.918,-9.252 16.65,-16.074"
               style="fill:#f5f5f5;fill-opacity:1;fill-rule:nonzero;stroke:none"
               id="path4337"
               inkscape:connector-curvature="0" />
          </g>
          <g
             transform="matrix(-1.2500001,0,0,-1.2500001,1530.7387,196.57302)"
             id="g4339"
             style="opacity:0.51999996">
            <path
               d="m 171.8735,435.2236 c 11.748,-7.8 25.842,-12.348 41,-12.348 13.986,0 27.067,3.871 38.235,10.597 8.458,-6.632 19.107,-10.597 30.689,-10.597 8.522,0 16.542,2.144 23.556,5.918 5.637,-3.737 12.395,-5.918 19.664,-5.918 19.685,0 35.643,15.957 35.643,35.642 0,19.105 -15.033,34.697 -33.914,35.6 -7.898,16.523 -24.638,27.998 -44.096,28.327 -10.359,28.508 -37.689,48.872 -69.777,48.872 -31.331,0 -58.126,-19.414 -69.016,-46.867 -1.712,0.173 -3.448,0.262 -5.205,0.262 -23.437,0 -43.163,-15.84 -49.088,-37.395 -0.606,0.034 -1.215,0.055 -1.83,0.055 -17.81,0 -32.248,-14.438 -32.248,-32.248 0,-17.81 14.438,-32.248 32.248,-32.248 8.606,0 16.419,3.378 22.202,8.872 8.175,-5.595 18.062,-8.872 28.716,-8.872 12.699,0 24.303,4.66 33.221,12.348"
               style="fill:#ededed;fill-opacity:1;fill-rule:nonzero;stroke:none"
               id="path4341"
               inkscape:connector-curvature="0" />
            <path
               d="m 176.583,506.5146 c -6.389,7.961 -17.873,11.403 -27.587,8.266 -9.715,-3.137 -17.017,-12.644 -17.543,-22.839 4.744,7.048 11.858,11.24 19.849,14.127 7.99,2.887 17.127,2.833 25.281,0.446"
               style="fill:#f5f5f5;fill-opacity:1;fill-rule:nonzero;stroke:none"
               id="path4343"
               inkscape:connector-curvature="0" />
            <path
               d="m 243.1777,564.8579 c -9.254,4.145 -19.508,6.459 -30.304,6.459 -31.331,0 -58.127,-19.414 -69.016,-46.868 -1.712,0.174 -3.448,0.263 -5.205,0.263 -23.437,0 -43.163,-15.84 -49.088,-37.395 -0.606,0.034 -1.216,0.055 -1.83,0.055 -12.15,0 -22.726,-6.722 -28.224,-16.648 2.649,2.67 5.732,4.867 9.206,6.339 8.166,3.462 18.49,2.287 24.745,-4.002 2.249,12.739 9.437,23.527 19.961,31.049 10.524,7.523 24.04,10.729 36.821,8.734 6.297,21.802 23.602,40.426 44.598,49.038 15.207,6.239 32.458,7.158 48.336,2.976"
               style="fill:#f5f5f5;fill-opacity:1;fill-rule:nonzero;stroke:none"
               id="path4345"
               inkscape:connector-curvature="0" />
            <path
               d="m 356.7534,474.7441 c -5.658,11.042 -16.902,18.747 -30.007,19.373 -7.858,16.44 -24.47,27.878 -43.801,28.317 -12.715,-3.308 -24.509,-10.23 -33.29,-20.017 9.681,7.432 22.269,9.558 34.315,7.594 12.046,-1.963 23.163,-9.084 29.983,-19.206 10.312,1.712 21.59,-1.28 30.724,-6.365 4.533,-2.523 8.62,-5.827 12.076,-9.696"
               style="fill:#f5f5f5;fill-opacity:1;fill-rule:nonzero;stroke:none"
               id="path4347"
               inkscape:connector-curvature="0" />
          </g>
          <g
             transform="matrix(-1.2500001,0,0,-1.2500001,1046.701,360.82612)"
             id="g4349"
             style="opacity:0.51999996">
            <path
               d="m 705.8784,493.0542 c -1.226,0 -2.433,-0.083 -3.62,-0.228 -6.714,13.514 -20.65,22.805 -36.762,22.805 -3.37,0 -6.641,-0.415 -9.776,-1.181 -0.901,31.559 -26.765,56.867 -58.541,56.867 -32.066,0 -58.109,-25.77 -58.558,-57.728 -4.025,1.319 -8.32,2.042 -12.787,2.042 -22.662,0 -41.033,-18.371 -41.033,-41.034 0,-0.747 0.022,-1.489 0.061,-2.226 -0.02,0 -0.041,0.002 -0.061,0.002 -10.717,0 -19.405,-8.688 -19.405,-19.405 0,-10.717 8.688,-19.404 19.405,-19.404 l 221.077,0 c 16.428,0 29.745,13.317 29.745,29.745 0,16.428 -13.317,29.745 -29.745,29.745"
               style="fill:#ededed;fill-opacity:1;fill-rule:nonzero;stroke:none"
               id="path4351"
               inkscape:connector-curvature="0" />
            <path
               d="m 563.6919,501.6553 c -5.714,4.665 -14.349,5.368 -20.742,1.689 -6.393,-3.68 -10.123,-11.499 -8.96,-18.783 2.292,5.696 6.689,9.729 11.902,12.973 5.212,3.244 11.678,4.581 17.8,4.121"
               style="fill:#f5f5f5;fill-opacity:1;fill-rule:nonzero;stroke:none"
               id="path4353"
               inkscape:connector-curvature="0" />
            <path
               d="m 491.6157,497.2393 c 4.71,4.536 10.517,7.933 16.837,9.625 12.66,3.391 26.956,-0.168 36.549,-9.099 -1.4,19.515 6.052,39.659 19.999,53.38 13.946,13.722 35.427,19.932 54.071,14.002 6.349,-2.019 12.124,-5.272 17.557,-9.129 -10.409,9.497 -24.248,15.299 -39.45,15.299 -32.065,0 -58.108,-25.77 -58.557,-57.728 -4.026,1.319 -8.32,2.042 -12.787,2.042 -14.292,0 -26.871,-7.31 -34.219,-18.392"
               style="fill:#f5f5f5;fill-opacity:1;fill-rule:nonzero;stroke:none"
               id="path4355"
               inkscape:connector-curvature="0" />
            <path
               d="m 735.6235,463.3091 c 0,16.428 -13.317,29.745 -29.745,29.745 -1.226,0 -2.433,-0.083 -3.62,-0.227 -6.714,13.513 -20.65,22.804 -36.762,22.804 -3.234,0 -6.377,-0.385 -9.395,-1.093 -10.441,-4.49 -19.509,-12.229 -25.272,-22.037 8.279,10.704 22.097,16.278 35.523,14.577 13.424,-1.702 25.648,-10.904 30.995,-23.335 8.088,2.689 17.244,0.21 23.711,-5.343 6.465,-5.553 10.08,-14.059 10.376,-22.577 0.105,-3.049 -0.199,-6.091 -0.84,-9.067 3.175,4.732 5.029,10.426 5.029,16.553"
               style="fill:#f5f5f5;fill-opacity:1;fill-rule:nonzero;stroke:none"
               id="path4357"
               inkscape:connector-curvature="0" />
          </g>
          <g
             transform="matrix(-1.2500001,0,0,-1.2500001,1636.8281,278.15262)"
             id="g4369"
             style="opacity:0.51999996">
            <path
               d="m 444.4302,300.6787 c 0,-16.281 13.198,-29.479 29.479,-29.479 2.714,0 5.331,0.397 7.827,1.083 1.146,-19.978 17.705,-35.828 37.97,-35.828 9.031,0 17.322,3.154 23.845,8.411 6.712,-10.795 18.675,-17.987 32.322,-17.987 11.598,0 21.977,5.197 28.954,13.383 5.991,-2.76 12.653,-4.311 19.68,-4.311 15.532,0 29.304,7.521 37.884,19.116 2.903,-0.956 5.997,-1.492 9.22,-1.492 16.281,0 29.479,13.199 29.479,29.48 0,16.28 -13.198,29.479 -29.479,29.479 -3.223,0 -6.317,-0.536 -9.22,-1.491 -8.58,11.594 -22.352,19.115 -37.884,19.115 -0.72,0 -1.434,-0.022 -2.147,-0.054 -5.201,14.812 -19.302,25.435 -35.892,25.435 -5.709,0 -11.119,-1.265 -15.978,-3.518 -7.878,15.002 -23.599,25.24 -41.72,25.24 -26.014,0 -47.103,-21.089 -47.103,-47.103 0,-0.36 0.019,-0.715 0.027,-1.073 -2.484,0.679 -5.086,1.073 -7.785,1.073 -16.281,0 -29.479,-13.199 -29.479,-29.479"
               style="fill:#ededed;fill-opacity:1;fill-rule:nonzero;stroke:none"
               id="path4371"
               inkscape:connector-curvature="0" />
            <path
               d="m 737.7974,301.377 c -10.379,0 -18.793,-8.414 -18.793,-18.793 0,-10.379 8.414,-18.793 18.793,-18.793 10.379,0 18.793,8.414 18.793,18.793 0,10.379 -8.414,18.793 -18.793,18.793"
               style="fill:#ededed;fill-opacity:1;fill-rule:nonzero;stroke:none"
               id="path4373"
               inkscape:connector-curvature="0" />
            <path
               d="m 508.9644,316.5117 c -6.616,5.401 -16.614,6.216 -24.018,1.955 -7.403,-4.261 -11.722,-13.314 -10.376,-21.749 2.655,6.595 7.747,11.266 13.783,15.022 6.035,3.755 13.522,5.304 20.611,4.772"
               style="fill:#f5f5f5;fill-opacity:1;fill-rule:nonzero;stroke:none"
               id="path4375"
               inkscape:connector-curvature="0" />
            <path
               d="m 526.0122,271.5234 c 3.664,-7.716 12.35,-12.736 20.864,-12.059 8.515,0.678 16.297,7.009 18.694,15.207 -5.224,-4.822 -11.826,-6.86 -18.889,-7.668 -7.064,-0.807 -14.491,1.001 -20.669,4.52"
               style="fill:#d9d9d9;fill-opacity:1;fill-rule:nonzero;stroke:none"
               id="path4377"
               inkscape:connector-curvature="0" />
            <path
               d="m 590.6499,257.21 c 2.554,-5.377 8.606,-8.875 14.54,-8.402 5.934,0.471 11.356,4.882 13.026,10.596 -3.639,-3.36 -8.24,-4.781 -13.163,-5.343 -4.922,-0.563 -10.098,0.697 -14.403,3.149"
               style="fill:#d9d9d9;fill-opacity:1;fill-rule:nonzero;stroke:none"
               id="path4379"
               inkscape:connector-curvature="0" />
            <path
               d="m 586.4683,355.5391 c -5.709,0 -11.119,-1.266 -15.979,-3.519 -7.877,15.002 -23.598,25.241 -41.719,25.241 -26.014,0 -47.103,-21.089 -47.103,-47.104 0,-0.359 0.019,-0.715 0.027,-1.072 -2.484,0.679 -5.086,1.072 -7.786,1.072 -10.67,0 -20.016,-5.67 -25.191,-14.161 3.577,2.121 7.51,3.642 11.602,4.397 9.827,1.817 20.381,-0.747 28.281,-6.869 -0.828,14.057 3.584,29.033 12.464,39.958 8.881,10.927 23.233,17.677 37.197,15.875 13.965,-1.801 26.672,-12.928 28.783,-26.849 7.869,6.55 18.057,9.732 28.277,9.107 4.511,-0.275 8.964,-1.339 13.134,-3.08 -6.207,4.408 -13.792,7.004 -21.987,7.004"
               style="fill:#f5f5f5;fill-opacity:1;fill-rule:nonzero;stroke:none"
               id="path4381"
               inkscape:connector-curvature="0" />
            <path
               d="m 660.23,252.3662 c -0.005,0.028 -0.007,0.058 -0.012,0.087 -7.451,-7.389 -17.915,-11.644 -28.407,-11.552 -10.493,0.092 -21.002,4.93 -28.322,12.447 -7.786,-9.142 -20.826,-13.459 -32.53,-10.768 -11.704,2.69 -22.488,11.64 -25.5,23.265 -7.563,-10.825 -21.086,-17.183 -34.248,-16.103 -11.563,0.949 -22.462,7.612 -28.802,17.296 3.467,-17.438 18.842,-30.583 37.298,-30.583 9.03,0 17.321,3.153 23.844,8.41 6.712,-10.795 18.675,-17.986 32.323,-17.986 11.597,0 21.976,5.197 28.954,13.383 5.99,-2.76 12.652,-4.311 19.679,-4.311 14.289,0 27.085,6.368 35.723,16.415"
               style="fill:#d9d9d9;fill-opacity:1;fill-rule:nonzero;stroke:none"
               id="path4383"
               inkscape:connector-curvature="0" />
          </g>
          <g
             id="g4385"
             transform="matrix(-1.2500001,0,0,-1.2500001,1055.4224,-65.068985)"
             style="opacity:0.51999996">
            <path
               inkscape:connector-curvature="0"
               id="path4387"
               style="fill:#ededed;fill-opacity:1;fill-rule:nonzero;stroke:none"
               d="m 171.8735,435.2236 c 11.748,-7.8 25.842,-12.348 41,-12.348 13.986,0 27.067,3.871 38.235,10.597 8.458,-6.632 19.107,-10.597 30.689,-10.597 8.522,0 16.542,2.144 23.556,5.918 5.637,-3.737 12.395,-5.918 19.664,-5.918 19.685,0 35.643,15.957 35.643,35.642 0,19.105 -15.033,34.697 -33.914,35.6 -7.898,16.523 -24.638,27.998 -44.096,28.327 -10.359,28.508 -37.689,48.872 -69.777,48.872 -31.331,0 -58.126,-19.414 -69.016,-46.867 -1.712,0.173 -3.448,0.262 -5.205,0.262 -23.437,0 -43.163,-15.84 -49.088,-37.395 -0.606,0.034 -1.215,0.055 -1.83,0.055 -17.81,0 -32.248,-14.438 -32.248,-32.248 0,-17.81 14.438,-32.248 32.248,-32.248 8.606,0 16.419,3.378 22.202,8.872 8.175,-5.595 18.062,-8.872 28.716,-8.872 12.699,0 24.303,4.66 33.221,12.348" />
            <path
               inkscape:connector-curvature="0"
               id="path4389"
               style="fill:#f5f5f5;fill-opacity:1;fill-rule:nonzero;stroke:none"
               d="m 176.583,506.5146 c -6.389,7.961 -17.873,11.403 -27.587,8.266 -9.715,-3.137 -17.017,-12.644 -17.543,-22.839 4.744,7.048 11.858,11.24 19.849,14.127 7.99,2.887 17.127,2.833 25.281,0.446" />
            <path
               inkscape:connector-curvature="0"
               id="path4391"
               style="fill:#f5f5f5;fill-opacity:1;fill-rule:nonzero;stroke:none"
               d="m 243.1777,564.8579 c -9.254,4.145 -19.508,6.459 -30.304,6.459 -31.331,0 -58.127,-19.414 -69.016,-46.868 -1.712,0.174 -3.448,0.263 -5.205,0.263 -23.437,0 -43.163,-15.84 -49.088,-37.395 -0.606,0.034 -1.216,0.055 -1.83,0.055 -12.15,0 -22.726,-6.722 -28.224,-16.648 2.649,2.67 5.732,4.867 9.206,6.339 8.166,3.462 18.49,2.287 24.745,-4.002 2.249,12.739 9.437,23.527 19.961,31.049 10.524,7.523 24.04,10.729 36.821,8.734 6.297,21.802 23.602,40.426 44.598,49.038 15.207,6.239 32.458,7.158 48.336,2.976" />
            <path
               inkscape:connector-curvature="0"
               id="path4393"
               style="fill:#f5f5f5;fill-opacity:1;fill-rule:nonzero;stroke:none"
               d="m 356.7534,474.7441 c -5.658,11.042 -16.902,18.747 -30.007,19.373 -7.858,16.44 -24.47,27.878 -43.801,28.317 -12.715,-3.308 -24.509,-10.23 -33.29,-20.017 9.681,7.432 22.269,9.558 34.315,7.594 12.046,-1.963 23.163,-9.084 29.983,-19.206 10.312,1.712 21.59,-1.28 30.724,-6.365 4.533,-2.523 8.62,-5.827 12.076,-9.696" />
          </g>
          <g
             style="opacity:0.51999996"
             id="g4395"
             transform="matrix(1.25,0,0,-1.2871624,1400.5876,1196.2623)">
            <path
               inkscape:connector-curvature="0"
               id="path4397"
               style="fill:#ededed;fill-opacity:1;fill-rule:nonzero;stroke:none"
               d="m 280.6216,746.3257 c 34.611,0 62.951,-26.836 65.355,-60.835 15.697,-3.707 27.382,-17.797 27.382,-34.625 0,-19.654 -15.933,-35.587 -35.587,-35.587 -1.028,0 -2.044,0.053 -3.049,0.139 -8.381,-8.23 -19.864,-13.311 -32.538,-13.311 -6.861,0 -13.369,1.499 -19.231,4.17 -8.13,-6.991 -18.698,-11.226 -30.261,-11.226 -15.932,0 -29.985,8.024 -38.352,20.247 -13.922,0.231 -26.302,6.769 -34.411,16.888 -3.095,-1.087 -6.42,-1.685 -9.887,-1.685 -16.476,0 -29.833,13.357 -29.833,29.833 0,16.477 13.357,29.833 29.833,29.833 3.467,0 6.792,-0.597 9.887,-1.684 8.257,10.302 20.938,16.907 35.169,16.907 1.579,0 3.138,-0.083 4.675,-0.242 9.664,24.132 33.264,41.178 60.848,41.178" />
            <path
               inkscape:connector-curvature="0"
               id="path4399"
               style="fill:#ededed;fill-opacity:1;fill-rule:nonzero;stroke:none"
               d="m 104.0103,678.4912 c 10.027,0 18.157,-8.129 18.157,-18.157 0,-10.028 -8.13,-18.157 -18.157,-18.157 -10.028,0 -18.157,8.129 -18.157,18.157 0,10.028 8.129,18.157 18.157,18.157" />
            <path
               inkscape:connector-curvature="0"
               id="path4401"
               style="fill:#ededed;fill-opacity:1;fill-rule:nonzero;stroke:none"
               d="m 46.3696,667.481 c -3.947,-3.947 -3.947,-10.347 0,-14.294 3.947,-3.947 10.347,-3.947 14.294,0 3.947,3.947 3.947,10.347 0,14.294 -3.947,3.947 -10.347,3.947 -14.294,0" />
            <path
               inkscape:connector-curvature="0"
               id="path4403"
               style="fill:#f5f5f5;fill-opacity:1;fill-rule:nonzero;stroke:none"
               d="m 223.6025,672.2017 c 1.208,8.164 7.818,15.252 15.877,17.028 8.06,1.776 17.037,-1.878 21.564,-8.778 -6.187,2.982 -12.862,3.004 -19.617,1.757 -6.755,-1.246 -13.109,-5.013 -17.824,-10.007" />
            <path
               inkscape:connector-curvature="0"
               id="path4405"
               style="fill:#d9d9d9;fill-opacity:1;fill-rule:nonzero;stroke:none"
               d="m 296.9224,631.1357 c -3.54,-7.455 -11.931,-12.305 -20.158,-11.65 -8.226,0.655 -15.745,6.771 -18.061,14.692 5.047,-4.659 11.426,-6.628 18.25,-7.408 6.824,-0.78 14.001,0.967 19.969,4.366" />
            <path
               inkscape:connector-curvature="0"
               id="path4407"
               style="fill:#d9d9d9;fill-opacity:1;fill-rule:nonzero;stroke:none"
               d="m 229.8516,634.2627 c -2.466,-5.195 -8.314,-8.575 -14.047,-8.119 -5.733,0.457 -10.973,4.719 -12.586,10.239 3.517,-3.247 7.962,-4.62 12.717,-5.163 4.756,-0.544 9.757,0.674 13.916,3.043" />
            <path
               inkscape:connector-curvature="0"
               id="path4409"
               style="fill:#f5f5f5;fill-opacity:1;fill-rule:nonzero;stroke:none"
               d="m 248.7017,738.0244 c 9.446,5.282 20.328,8.301 31.92,8.301 34.611,0 62.951,-26.836 65.355,-60.835 9.347,-2.207 17.269,-8.096 22.151,-16.053 -7.674,7.863 -19.546,11.521 -30.291,9.068 0.461,23.647 -14.319,46.369 -35.642,56.601 -16.517,7.927 -36.011,8.522 -53.493,2.918" />
            <path
               inkscape:connector-curvature="0"
               id="path4411"
               style="fill:#f5f5f5;fill-opacity:1;fill-rule:nonzero;stroke:none"
               d="m 145.397,677.1436 c 5.372,7.862 14.405,13.023 24.646,13.023 3.466,0 6.791,-0.597 9.887,-1.684 8.257,10.303 20.938,16.907 35.168,16.907 1.108,0 2.201,-0.055 3.288,-0.134 10.023,-4.062 18.741,-11.413 23.937,-20.914 -6.472,8.936 -18.38,10.994 -29.343,9.761 -10.965,-1.232 -21.022,-6.693 -30.001,-13.105 -2.122,3.953 -6.533,4.785 -11,5.183 -9.6,0.855 -19.398,-2.652 -26.582,-9.037" />
            <path
               inkscape:connector-curvature="0"
               id="path4413"
               style="fill:#d9d9d9;fill-opacity:1;fill-rule:nonzero;stroke:none"
               d="m 182.082,629.7134 c 11.926,-4.039 24.637,-3.6 36.704,0.244 4.405,-11.421 15.609,-19.908 27.796,-21.056 12.187,-1.148 23.875,4.219 30.336,14.615 8.008,-9.561 21.103,-14.588 33.453,-12.841 12.348,1.748 24.83,9.16 29.871,20.567 -1.128,-5.476 -2.953,-10.806 -5.402,-15.833 -0.039,0.004 -0.079,0.005 -0.118,0.008 -8.381,-8.229 -19.863,-13.311 -32.537,-13.311 -6.862,0 -13.37,1.5 -19.231,4.17 -8.13,-6.991 -18.698,-11.226 -30.262,-11.226 -15.931,0 -29.985,8.024 -38.352,20.247 -12.747,0.211 -24.191,5.722 -32.258,14.416" />
          </g>
          <g
             style="opacity:0.51999996"
             id="g4415"
             transform="matrix(1.2500001,0,0,-1.2500001,42.169666,616.3966)">
            <path
               inkscape:connector-curvature="0"
               id="path4417"
               style="fill:#ededed;fill-opacity:1;fill-rule:nonzero;stroke:none"
               d="m 334.5449,231.3086 c 14.522,0 26.294,11.772 26.294,26.295 0,14.522 -11.772,26.295 -26.294,26.295 -3.581,0 -6.993,-0.719 -10.104,-2.015 -4.761,16.526 -19.985,28.619 -38.043,28.619 -2.453,0 -4.849,-0.234 -7.178,-0.661 0.002,0.22 0.009,0.44 0.009,0.661 0,43.738 -35.456,79.194 -79.194,79.194 -33.945,0 -62.897,-21.359 -74.162,-51.368 -5.078,1.557 -10.47,2.4 -16.058,2.4 -30.216,0 -54.71,-24.494 -54.71,-54.71 0,-30.216 24.494,-54.71 54.71,-54.71 l 224.73,0 z" />
            <path
               inkscape:connector-curvature="0"
               id="path4419"
               style="fill:#f5f5f5;fill-opacity:1;fill-rule:nonzero;stroke:none"
               d="m 134.5654,315.7969 c 0.354,22.619 14.143,43.888 33.576,55.468 19.433,11.579 44.184,13.179 65.435,5.424 11.209,-4.091 21.396,-10.662 30.007,-18.924 -14.436,19.38 -37.526,31.931 -63.549,31.931 -33.944,0 -62.896,-21.358 -74.161,-51.368 -5.079,1.558 -10.47,2.401 -16.059,2.401 -21.038,0 -39.291,-11.881 -48.445,-29.293 5.447,7.468 12.945,13.439 21.615,16.672 17.569,6.548 38.863,1.465 51.581,-12.311" />
            <path
               inkscape:connector-curvature="0"
               id="path4421"
               style="fill:#f5f5f5;fill-opacity:1;fill-rule:nonzero;stroke:none"
               d="m 360.8394,257.6035 c 0,14.522 -11.772,26.295 -26.294,26.295 -3.581,0 -6.993,-0.719 -10.104,-2.015 -4.761,16.526 -19.985,28.619 -38.043,28.619 -1.603,0 -3.178,-0.109 -4.729,-0.297 -9.11,-3.341 -17.162,-9.634 -22.273,-17.895 10.333,7.8 24.429,9.611 36.673,5.408 12.246,-4.204 22.11,-14.761 25.474,-27.262 6.223,4.8 14.801,4.746 21.951,1.48 7.15,-3.266 12.336,-10.302 13.773,-18.029 0.584,-3.139 0.558,-6.362 0.016,-9.503 2.257,3.88 3.556,8.387 3.556,13.199" />
            <path
               inkscape:connector-curvature="0"
               id="path4423"
               style="fill:#f5f5f5;fill-opacity:1;fill-rule:nonzero;stroke:none"
               d="m 170.0776,315.7041 c -8.363,10.422 -23.396,14.927 -36.112,10.821 -12.717,-4.106 -22.277,-16.552 -22.965,-29.897 6.211,9.226 15.523,14.713 25.983,18.492 10.46,3.78 22.42,3.709 33.094,0.584" />
            <path
               inkscape:connector-curvature="0"
               id="path4425"
               style="fill:#f5f5f5;fill-opacity:1;fill-rule:nonzero;stroke:none"
               d="m 272.8491,277.4531 c 1.018,9.288 -4.187,18.948 -12.504,23.205 -8.318,4.257 -19.198,2.83 -26.136,-3.428 7.632,1.492 14.949,-0.4 21.99,-3.703 7.04,-3.303 12.918,-9.252 16.65,-16.074" />
          </g>
          <g
             style="opacity:0.51999996"
             id="g4427"
             transform="matrix(1.2500001,0,0,-1.2500001,409.92206,1167.2984)">
            <path
               inkscape:connector-curvature="0"
               id="path4429"
               style="fill:#ededed;fill-opacity:1;fill-rule:nonzero;stroke:none"
               d="m 171.8735,435.2236 c 11.748,-7.8 25.842,-12.348 41,-12.348 13.986,0 27.067,3.871 38.235,10.597 8.458,-6.632 19.107,-10.597 30.689,-10.597 8.522,0 16.542,2.144 23.556,5.918 5.637,-3.737 12.395,-5.918 19.664,-5.918 19.685,0 35.643,15.957 35.643,35.642 0,19.105 -15.033,34.697 -33.914,35.6 -7.898,16.523 -24.638,27.998 -44.096,28.327 -10.359,28.508 -37.689,48.872 -69.777,48.872 -31.331,0 -58.126,-19.414 -69.016,-46.867 -1.712,0.173 -3.448,0.262 -5.205,0.262 -23.437,0 -43.163,-15.84 -49.088,-37.395 -0.606,0.034 -1.215,0.055 -1.83,0.055 -17.81,0 -32.248,-14.438 -32.248,-32.248 0,-17.81 14.438,-32.248 32.248,-32.248 8.606,0 16.419,3.378 22.202,8.872 8.175,-5.595 18.062,-8.872 28.716,-8.872 12.699,0 24.303,4.66 33.221,12.348" />
            <path
               inkscape:connector-curvature="0"
               id="path4431"
               style="fill:#f5f5f5;fill-opacity:1;fill-rule:nonzero;stroke:none"
               d="m 176.583,506.5146 c -6.389,7.961 -17.873,11.403 -27.587,8.266 -9.715,-3.137 -17.017,-12.644 -17.543,-22.839 4.744,7.048 11.858,11.24 19.849,14.127 7.99,2.887 17.127,2.833 25.281,0.446" />
            <path
               inkscape:connector-curvature="0"
               id="path4433"
               style="fill:#f5f5f5;fill-opacity:1;fill-rule:nonzero;stroke:none"
               d="m 243.1777,564.8579 c -9.254,4.145 -19.508,6.459 -30.304,6.459 -31.331,0 -58.127,-19.414 -69.016,-46.868 -1.712,0.174 -3.448,0.263 -5.205,0.263 -23.437,0 -43.163,-15.84 -49.088,-37.395 -0.606,0.034 -1.216,0.055 -1.83,0.055 -12.15,0 -22.726,-6.722 -28.224,-16.648 2.649,2.67 5.732,4.867 9.206,6.339 8.166,3.462 18.49,2.287 24.745,-4.002 2.249,12.739 9.437,23.527 19.961,31.049 10.524,7.523 24.04,10.729 36.821,8.734 6.297,21.802 23.602,40.426 44.598,49.038 15.207,6.239 32.458,7.158 48.336,2.976" />
            <path
               inkscape:connector-curvature="0"
               id="path4435"
               style="fill:#f5f5f5;fill-opacity:1;fill-rule:nonzero;stroke:none"
               d="m 356.7534,474.7441 c -5.658,11.042 -16.902,18.747 -30.007,19.373 -7.858,16.44 -24.47,27.878 -43.801,28.317 -12.715,-3.308 -24.509,-10.23 -33.29,-20.017 9.681,7.432 22.269,9.558 34.315,7.594 12.046,-1.963 23.163,-9.084 29.983,-19.206 10.312,1.712 21.59,-1.28 30.724,-6.365 4.533,-2.523 8.62,-5.827 12.076,-9.696" />
          </g>
          <g
             style="opacity:0.51999996"
             id="g4437"
             transform="matrix(1.2500001,0,0,-1.2500001,893.95976,1331.5515)">
            <path
               inkscape:connector-curvature="0"
               id="path4439"
               style="fill:#ededed;fill-opacity:1;fill-rule:nonzero;stroke:none"
               d="m 705.8784,493.0542 c -1.226,0 -2.433,-0.083 -3.62,-0.228 -6.714,13.514 -20.65,22.805 -36.762,22.805 -3.37,0 -6.641,-0.415 -9.776,-1.181 -0.901,31.559 -26.765,56.867 -58.541,56.867 -32.066,0 -58.109,-25.77 -58.558,-57.728 -4.025,1.319 -8.32,2.042 -12.787,2.042 -22.662,0 -41.033,-18.371 -41.033,-41.034 0,-0.747 0.022,-1.489 0.061,-2.226 -0.02,0 -0.041,0.002 -0.061,0.002 -10.717,0 -19.405,-8.688 -19.405,-19.405 0,-10.717 8.688,-19.404 19.405,-19.404 l 221.077,0 c 16.428,0 29.745,13.317 29.745,29.745 0,16.428 -13.317,29.745 -29.745,29.745" />
            <path
               inkscape:connector-curvature="0"
               id="path4441"
               style="fill:#f5f5f5;fill-opacity:1;fill-rule:nonzero;stroke:none"
               d="m 563.6919,501.6553 c -5.714,4.665 -14.349,5.368 -20.742,1.689 -6.393,-3.68 -10.123,-11.499 -8.96,-18.783 2.292,5.696 6.689,9.729 11.902,12.973 5.212,3.244 11.678,4.581 17.8,4.121" />
            <path
               inkscape:connector-curvature="0"
               id="path4443"
               style="fill:#f5f5f5;fill-opacity:1;fill-rule:nonzero;stroke:none"
               d="m 491.6157,497.2393 c 4.71,4.536 10.517,7.933 16.837,9.625 12.66,3.391 26.956,-0.168 36.549,-9.099 -1.4,19.515 6.052,39.659 19.999,53.38 13.946,13.722 35.427,19.932 54.071,14.002 6.349,-2.019 12.124,-5.272 17.557,-9.129 -10.409,9.497 -24.248,15.299 -39.45,15.299 -32.065,0 -58.108,-25.77 -58.557,-57.728 -4.026,1.319 -8.32,2.042 -12.787,2.042 -14.292,0 -26.871,-7.31 -34.219,-18.392" />
            <path
               inkscape:connector-curvature="0"
               id="path4445"
               style="fill:#f5f5f5;fill-opacity:1;fill-rule:nonzero;stroke:none"
               d="m 735.6235,463.3091 c 0,16.428 -13.317,29.745 -29.745,29.745 -1.226,0 -2.433,-0.083 -3.62,-0.227 -6.714,13.513 -20.65,22.804 -36.762,22.804 -3.234,0 -6.377,-0.385 -9.395,-1.093 -10.441,-4.49 -19.509,-12.229 -25.272,-22.037 8.279,10.704 22.097,16.278 35.523,14.577 13.424,-1.702 25.648,-10.904 30.995,-23.335 8.088,2.689 17.244,0.21 23.711,-5.343 6.465,-5.553 10.08,-14.059 10.376,-22.577 0.105,-3.049 -0.199,-6.091 -0.84,-9.067 3.175,4.732 5.029,10.426 5.029,16.553" />
          </g>
          <g
             style="opacity:0.51999996"
             id="g4447"
             transform="matrix(1.2500001,0,0,-1.2500001,-37.776533,1061.188)">
            <path
               inkscape:connector-curvature="0"
               id="path4449"
               style="fill:#ededed;fill-opacity:1;fill-rule:nonzero;stroke:none"
               d="m 325.1206,91.8789 c -0.18,0 -0.355,-0.021 -0.534,-0.027 -2.337,11.517 -12.109,20.329 -24.088,21.223 -4.18,20.016 -21.922,35.052 -43.18,35.052 -3.547,0 -6.991,-0.43 -10.296,-1.22 -9.363,23.331 -32.178,39.815 -58.857,39.815 -16.926,0 -32.292,-6.646 -43.663,-17.452 -3.581,1.562 -7.532,2.433 -11.689,2.433 -14.371,0 -26.315,-10.358 -28.793,-24.014 -21.439,-3.005 -37.94,-21.41 -37.94,-43.677 0,-24.364 19.752,-44.116 44.116,-44.116 l 214.924,0 c 8.832,0 15.991,7.16 15.991,15.991 0,8.832 -7.159,15.992 -15.991,15.992" />
            <path
               inkscape:connector-curvature="0"
               id="path4451"
               style="fill:#f5f5f5;fill-opacity:1;fill-rule:nonzero;stroke:none"
               d="m 169.312,156.5957 c -3.944,5.276 -11.275,7.75 -17.609,5.942 -6.335,-1.808 -11.256,-7.778 -11.821,-14.341 3.216,4.44 7.897,6.986 13.115,8.671 5.217,1.686 11.109,1.449 16.315,-0.272" />
            <path
               inkscape:connector-curvature="0"
               id="path4453"
               style="fill:#f5f5f5;fill-opacity:1;fill-rule:nonzero;stroke:none"
               d="m 146.4678,155.959 c 10.776,16.527 29.422,24.461 49.092,22.919 14.625,-1.147 28.464,-6.783 40.982,-14.604 -11.627,13.727 -28.977,22.448 -48.376,22.448 -16.927,0 -32.292,-6.646 -43.663,-17.452 -3.581,1.562 -7.533,2.433 -11.689,2.433 -9.561,0 -18.043,-4.588 -23.383,-11.679 3.631,2.558 7.837,4.295 12.236,4.915 9.061,1.276 18.657,-2.199 24.801,-8.98" />
            <path
               inkscape:connector-curvature="0"
               id="path4455"
               style="fill:#f5f5f5;fill-opacity:1;fill-rule:nonzero;stroke:none"
               d="m 272.3252,135.1211 c 8.215,-4.029 14.65,-12.22 15.134,-21.357 -8.526,1.666 -18.276,-1.234 -24.793,-6.976 6.545,3.866 13.625,3.604 21.108,2.271 7.484,-1.334 14.444,-5.423 19.25,-11.313 -0.97,3.355 -2.831,7.377 -4.806,10.257 9.998,-0.411 19.003,-4.661 25.236,-12.214 -3.541,9.539 -12.385,16.496 -22.956,17.286 -4.18,20.016 -21.922,35.052 -43.179,35.052 -3.547,0 -6.992,-0.43 -10.296,-1.22 -0.081,0.199 -0.17,0.395 -0.252,0.594 -10.191,-4.87 -19.399,-11.791 -26.747,-20.373 7.96,4.512 16.547,8.261 25.473,10.274 8.926,2.013 18.613,1.748 26.828,-2.281" />
          </g>
          <g
             style="opacity:0.51999996"
             id="g4457"
             transform="matrix(1.2500001,0,0,-1.2500001,303.83266,1248.878)">
            <path
               inkscape:connector-curvature="0"
               id="path4459"
               style="fill:#ededed;fill-opacity:1;fill-rule:nonzero;stroke:none"
               d="m 444.4302,300.6787 c 0,-16.281 13.198,-29.479 29.479,-29.479 2.714,0 5.331,0.397 7.827,1.083 1.146,-19.978 17.705,-35.828 37.97,-35.828 9.031,0 17.322,3.154 23.845,8.411 6.712,-10.795 18.675,-17.987 32.322,-17.987 11.598,0 21.977,5.197 28.954,13.383 5.991,-2.76 12.653,-4.311 19.68,-4.311 15.532,0 29.304,7.521 37.884,19.116 2.903,-0.956 5.997,-1.492 9.22,-1.492 16.281,0 29.479,13.199 29.479,29.48 0,16.28 -13.198,29.479 -29.479,29.479 -3.223,0 -6.317,-0.536 -9.22,-1.491 -8.58,11.594 -22.352,19.115 -37.884,19.115 -0.72,0 -1.434,-0.022 -2.147,-0.054 -5.201,14.812 -19.302,25.435 -35.892,25.435 -5.709,0 -11.119,-1.265 -15.978,-3.518 -7.878,15.002 -23.599,25.24 -41.72,25.24 -26.014,0 -47.103,-21.089 -47.103,-47.103 0,-0.36 0.019,-0.715 0.027,-1.073 -2.484,0.679 -5.086,1.073 -7.785,1.073 -16.281,0 -29.479,-13.199 -29.479,-29.479" />
            <path
               inkscape:connector-curvature="0"
               id="path4461"
               style="fill:#ededed;fill-opacity:1;fill-rule:nonzero;stroke:none"
               d="m 737.7974,301.377 c -10.379,0 -18.793,-8.414 -18.793,-18.793 0,-10.379 8.414,-18.793 18.793,-18.793 10.379,0 18.793,8.414 18.793,18.793 0,10.379 -8.414,18.793 -18.793,18.793" />
            <path
               inkscape:connector-curvature="0"
               id="path4463"
               style="fill:#f5f5f5;fill-opacity:1;fill-rule:nonzero;stroke:none"
               d="m 508.9644,316.5117 c -6.616,5.401 -16.614,6.216 -24.018,1.955 -7.403,-4.261 -11.722,-13.314 -10.376,-21.749 2.655,6.595 7.747,11.266 13.783,15.022 6.035,3.755 13.522,5.304 20.611,4.772" />
            <path
               inkscape:connector-curvature="0"
               id="path4465"
               style="fill:#d9d9d9;fill-opacity:1;fill-rule:nonzero;stroke:none"
               d="m 526.0122,271.5234 c 3.664,-7.716 12.35,-12.736 20.864,-12.059 8.515,0.678 16.297,7.009 18.694,15.207 -5.224,-4.822 -11.826,-6.86 -18.889,-7.668 -7.064,-0.807 -14.491,1.001 -20.669,4.52" />
            <path
               inkscape:connector-curvature="0"
               id="path4467"
               style="fill:#d9d9d9;fill-opacity:1;fill-rule:nonzero;stroke:none"
               d="m 590.6499,257.21 c 2.554,-5.377 8.606,-8.875 14.54,-8.402 5.934,0.471 11.356,4.882 13.026,10.596 -3.639,-3.36 -8.24,-4.781 -13.163,-5.343 -4.922,-0.563 -10.098,0.697 -14.403,3.149" />
            <path
               inkscape:connector-curvature="0"
               id="path4469"
               style="fill:#f5f5f5;fill-opacity:1;fill-rule:nonzero;stroke:none"
               d="m 586.4683,355.5391 c -5.709,0 -11.119,-1.266 -15.979,-3.519 -7.877,15.002 -23.598,25.241 -41.719,25.241 -26.014,0 -47.103,-21.089 -47.103,-47.104 0,-0.359 0.019,-0.715 0.027,-1.072 -2.484,0.679 -5.086,1.072 -7.786,1.072 -10.67,0 -20.016,-5.67 -25.191,-14.161 3.577,2.121 7.51,3.642 11.602,4.397 9.827,1.817 20.381,-0.747 28.281,-6.869 -0.828,14.057 3.584,29.033 12.464,39.958 8.881,10.927 23.233,17.677 37.197,15.875 13.965,-1.801 26.672,-12.928 28.783,-26.849 7.869,6.55 18.057,9.732 28.277,9.107 4.511,-0.275 8.964,-1.339 13.134,-3.08 -6.207,4.408 -13.792,7.004 -21.987,7.004" />
            <path
               inkscape:connector-curvature="0"
               id="path4471"
               style="fill:#d9d9d9;fill-opacity:1;fill-rule:nonzero;stroke:none"
               d="m 660.23,252.3662 c -0.005,0.028 -0.007,0.058 -0.012,0.087 -7.451,-7.389 -17.915,-11.644 -28.407,-11.552 -10.493,0.092 -21.002,4.93 -28.322,12.447 -7.786,-9.142 -20.826,-13.459 -32.53,-10.768 -11.704,2.69 -22.488,11.64 -25.5,23.265 -7.563,-10.825 -21.086,-17.183 -34.248,-16.103 -11.563,0.949 -22.462,7.612 -28.802,17.296 3.467,-17.438 18.842,-30.583 37.298,-30.583 9.03,0 17.321,3.153 23.844,8.41 6.712,-10.795 18.675,-17.986 32.323,-17.986 11.597,0 21.976,5.197 28.954,13.383 5.99,-2.76 12.652,-4.311 19.679,-4.311 14.289,0 27.085,6.368 35.723,16.415" />
          </g>
          <g
             style="opacity:0.51999996"
             transform="matrix(1.2500001,0,0,-1.2500001,885.23836,905.6564)"
             id="g4473">
            <path
               d="m 171.8735,435.2236 c 11.748,-7.8 25.842,-12.348 41,-12.348 13.986,0 27.067,3.871 38.235,10.597 8.458,-6.632 19.107,-10.597 30.689,-10.597 8.522,0 16.542,2.144 23.556,5.918 5.637,-3.737 12.395,-5.918 19.664,-5.918 19.685,0 35.643,15.957 35.643,35.642 0,19.105 -15.033,34.697 -33.914,35.6 -7.898,16.523 -24.638,27.998 -44.096,28.327 -10.359,28.508 -37.689,48.872 -69.777,48.872 -31.331,0 -58.126,-19.414 -69.016,-46.867 -1.712,0.173 -3.448,0.262 -5.205,0.262 -23.437,0 -43.163,-15.84 -49.088,-37.395 -0.606,0.034 -1.215,0.055 -1.83,0.055 -17.81,0 -32.248,-14.438 -32.248,-32.248 0,-17.81 14.438,-32.248 32.248,-32.248 8.606,0 16.419,3.378 22.202,8.872 8.175,-5.595 18.062,-8.872 28.716,-8.872 12.699,0 24.303,4.66 33.221,12.348"
               style="fill:#ededed;fill-opacity:1;fill-rule:nonzero;stroke:none"
               id="path4475"
               inkscape:connector-curvature="0" />
            <path
               d="m 176.583,506.5146 c -6.389,7.961 -17.873,11.403 -27.587,8.266 -9.715,-3.137 -17.017,-12.644 -17.543,-22.839 4.744,7.048 11.858,11.24 19.849,14.127 7.99,2.887 17.127,2.833 25.281,0.446"
               style="fill:#f5f5f5;fill-opacity:1;fill-rule:nonzero;stroke:none"
               id="path4477"
               inkscape:connector-curvature="0" />
            <path
               d="m 243.1777,564.8579 c -9.254,4.145 -19.508,6.459 -30.304,6.459 -31.331,0 -58.127,-19.414 -69.016,-46.868 -1.712,0.174 -3.448,0.263 -5.205,0.263 -23.437,0 -43.163,-15.84 -49.088,-37.395 -0.606,0.034 -1.216,0.055 -1.83,0.055 -12.15,0 -22.726,-6.722 -28.224,-16.648 2.649,2.67 5.732,4.867 9.206,6.339 8.166,3.462 18.49,2.287 24.745,-4.002 2.249,12.739 9.437,23.527 19.961,31.049 10.524,7.523 24.04,10.729 36.821,8.734 6.297,21.802 23.602,40.426 44.598,49.038 15.207,6.239 32.458,7.158 48.336,2.976"
               style="fill:#f5f5f5;fill-opacity:1;fill-rule:nonzero;stroke:none"
               id="path4479"
               inkscape:connector-curvature="0" />
            <path
               d="m 356.7534,474.7441 c -5.658,11.042 -16.902,18.747 -30.007,19.373 -7.858,16.44 -24.47,27.878 -43.801,28.317 -12.715,-3.308 -24.509,-10.23 -33.29,-20.017 9.681,7.432 22.269,9.558 34.315,7.594 12.046,-1.963 23.163,-9.084 29.983,-19.206 10.312,1.712 21.59,-1.28 30.724,-6.365 4.533,-2.523 8.62,-5.827 12.076,-9.696"
               style="fill:#f5f5f5;fill-opacity:1;fill-rule:nonzero;stroke:none"
               id="path4481"
               inkscape:connector-curvature="0" />
          </g>
        </g>
      </g>
    </g>
  </g>
</svg>
